<?xml version="1.0" standalone="no"?>
<!DOCTYPE svg PUBLIC "-//W3C//DTD SVG 20010904//EN"
 "http://www.w3.org/TR/2001/REC-SVG-20010904/DTD/svg10.dtd">
<svg version="1.0" xmlns="http://www.w3.org/2000/svg"
 width="520.000000pt" height="520.000000pt" viewBox="0 0 520.000000 520.000000"
 preserveAspectRatio="xMidYMid meet">

<g transform="translate(0.000000,520.000000) scale(0.100000,-0.100000)"
fill="#000000" stroke="none">
<path d="M2468 4073 l-48 -4 0 -72 0 -72 198 -1 c188 -1 202 -2 317 -32 233
-62 466 -201 631 -375 238 -251 364 -569 364 -917 0 -268 -73 -515 -217 -732
l-44 -67 3 -108 3 -108 58 70 c118 142 215 318 271 490 117 359 92 742 -70
1085 -238 503 -733 828 -1287 844 -73 2 -153 2 -179 -1z"/>
<path d="M2144 4005 c-518 -172 -903 -612 -1000 -1145 -24 -130 -24 -390 0
-520 35 -192 118 -395 233 -569 74 -112 279 -318 393 -393 173 -114 371 -196
570 -234 140 -26 400 -24 537 4 236 51 428 136 606 270 l57 43 0 850 0 849
-82 0 -83 0 -155 -269 c-85 -149 -157 -268 -159 -265 -3 2 -73 122 -156 267
l-152 262 -78 3 c-63 2 -76 0 -72 -11 3 -8 48 -88 100 -178 52 -90 138 -240
192 -334 145 -253 167 -287 175 -278 5 4 76 127 160 273 84 146 156 269 161
275 5 5 9 -272 9 -683 l0 -692 -67 -44 c-142 -91 -287 -152 -458 -192 -64 -15
-120 -19 -280 -19 -187 0 -207 2 -310 29 -390 101 -702 349 -879 702 -94 188
-138 372 -138 589 -1 284 73 524 234 762 66 99 240 273 339 341 82 55 237 136
282 147 l27 7 0 -772 c0 -859 4 -813 -68 -868 -49 -38 -141 -42 -197 -10 -41
24 -85 88 -85 124 0 27 -17 34 -87 34 l-56 0 6 -45 c21 -151 138 -262 287
-273 131 -9 246 55 308 172 l27 51 3 888 2 887 -22 0 c-13 -1 -68 -16 -124
-35z"/>
<path d="M2590 2462 l0 -422 70 0 70 0 0 308 0 308 -61 105 c-34 57 -65 108
-70 114 -5 5 -9 -171 -9 -413z"/>
</g>
</svg>
