<?xml version="1.0" encoding="UTF-8"?>
<!DOCTYPE svg PUBLIC "-//W3C//DTD SVG 1.1//EN" "http://www.w3.org/Graphics/SVG/1.1/DTD/svg11.dtd">
<svg xmlns="http://www.w3.org/2000/svg" version="1.1" width="693px" height="693px" style="shape-rendering:geometricPrecision; text-rendering:geometricPrecision; image-rendering:optimizeQuality; fill-rule:evenodd; clip-rule:evenodd" xmlns:xlink="http://www.w3.org/1999/xlink">
<g><path style="opacity:0.941" fill="#fefffe" d="M 321.5,149.5 C 413.836,143.901 481.669,181.568 525,262.5C 556.434,337.862 547.434,407.862 498,472.5C 495.62,475.924 492.787,478.924 489.5,481.5C 488.334,471.517 488.168,461.517 489,451.5C 526.026,396.599 532.693,338.266 509,276.5C 482.976,221.156 440.143,186.323 380.5,172C 360.842,170.875 341.176,170.042 321.5,169.5C 321.5,162.833 321.5,156.167 321.5,149.5 Z"/></g>
<g><path style="opacity:0.951" fill="#fefffe" d="M 300.5,153.5 C 302.167,153.5 303.833,153.5 305.5,153.5C 305.476,233.386 304.976,313.053 304,392.5C 291.105,418.468 270.938,426.635 243.5,417C 228.12,408.426 220.453,395.26 220.5,377.5C 226.641,377.1 232.641,377.767 238.5,379.5C 242.914,397.872 254.247,404.705 272.5,400C 276.974,397.857 280.474,394.69 283,390.5C 284.026,385.215 284.693,379.882 285,374.5C 285.5,309.834 285.667,245.168 285.5,180.5C 270.101,185.533 255.767,192.7 242.5,202C 179.098,252.536 156.931,317.37 176,396.5C 198.869,463.861 245.036,505.361 314.5,521C 364.958,529.092 410.791,518.259 452,488.5C 452.486,437.835 452.653,387.335 452.5,337C 451.703,327.201 451.203,317.368 451,307.5C 440.147,325.206 429.814,343.206 420,361.5C 416.496,367.844 412.496,373.844 408,379.5C 404.753,375.341 401.753,371.008 399,366.5C 381.92,336.004 364.586,305.671 347,275.5C 346.51,274.207 346.343,272.873 346.5,271.5C 353.532,271.17 360.532,271.503 367.5,272.5C 380.801,295.63 394.301,318.63 408,341.5C 421.5,318.5 435,295.5 448.5,272.5C 456.138,271.503 463.804,271.169 471.5,271.5C 471.833,347.503 471.5,423.503 470.5,499.5C 417.283,540.799 357.949,552.966 292.5,536C 239.271,520.1 199.104,487.933 172,439.5C 149.479,396.163 143.146,350.496 153,302.5C 169.675,237.627 208.508,191.46 269.5,164C 279.841,160.165 290.175,156.665 300.5,153.5 Z"/></g>
<g><path style="opacity:0.959" fill="#fefffe" d="M 345.5,308.5 C 351.866,317.394 357.699,326.728 363,336.5C 363.5,364.831 363.667,393.165 363.5,421.5C 357.167,421.5 350.833,421.5 344.5,421.5C 344.173,383.761 344.507,346.094 345.5,308.5 Z"/></g>
</svg>
